HIERARCHY
ROOT root
{
	OFFSET 0.000000 0.000000 0.000000
	CHANNELS 6 Xposition Yposition Zposition Zrotation Yrotation Xrotation
	JOINT lhip
	{
		OFFSET 0.058581 -0.082280 -0.017664
		CHANNELS 3 Zrotation Yrotation Xrotation
		JOINT lknee
		{
			OFFSET 0.043451 -0.386469 0.008037
			CHANNELS 3 Zrotation Yrotation Xrotation
			JOINT lankle
			{
				OFFSET -0.014790 -0.426874 -0.037428
				CHANNELS 3 Zrotation Yrotation Xrotation
				JOINT ltoe
				{
					OFFSET 0.041054 -0.060286 0.122042
					CHANNELS 3 Zrotation Yrotation Xrotation
					End Site
					{
						OFFSET 0.000000 0.000000 0.000000
					}
				}
			}
		}
	}
	JOINT rhip
	{
		OFFSET -0.060310 -0.090513 -0.013543
		CHANNELS 3 Zrotation Yrotation Xrotation
		JOINT rknee
		{
			OFFSET -0.043257 -0.383688 -0.004843
			CHANNELS 3 Zrotation Yrotation Xrotation
			JOINT rankle
			{
				OFFSET 0.019056 -0.420046 -0.034562
				CHANNELS 3 Zrotation Yrotation Xrotation
				JOINT rtoe
				{
					OFFSET -0.034840 -0.062106 0.130323
					CHANNELS 3 Zrotation Yrotation Xrotation
					End Site
					{
						OFFSET 0.000000 0.000000 0.000000
					}
				}
			}
		}
	}
	JOINT lowerback
	{
		OFFSET 0.004439 0.124404 -0.038385
		CHANNELS 3 Zrotation Yrotation Xrotation
		JOINT upperback
		{
			OFFSET 0.004488 0.137956 0.026820
			CHANNELS 3 Zrotation Yrotation Xrotation
			JOINT chest
			{
				OFFSET -0.002265 0.056032 0.002855
				CHANNELS 3 Zrotation Yrotation Xrotation
				JOINT lowerneck
				{
					OFFSET -0.013390 0.211636 -0.033468
					CHANNELS 3 Zrotation Yrotation Xrotation
					JOINT upperneck
					{
						OFFSET 0.010113 0.088937 0.050410
						CHANNELS 3 Zrotation Yrotation Xrotation
						End Site
						{
							OFFSET 0.000000 0.000000 0.000000
						}
					}
				}
				JOINT lclavicle
				{
					OFFSET 0.071702 0.114000 -0.018898
					CHANNELS 3 Zrotation Yrotation Xrotation
					JOINT lshoulder
					{
						OFFSET 0.122921 0.045205 -0.019046
						CHANNELS 3 Zrotation Yrotation Xrotation
						JOINT lelbow
						{
							OFFSET 0.255332 -0.015649 -0.022946
							CHANNELS 3 Zrotation Yrotation Xrotation
							JOINT lwrist
							{
								OFFSET 0.265709 0.012698 -0.007375
								CHANNELS 3 Zrotation Yrotation Xrotation
								End Site
								{
									OFFSET 0.000000 0.000000 0.000000
								}
							}
						}
					}
				}
				JOINT rclavicle
				{
					OFFSET -0.082954 0.112472 -0.023707
					CHANNELS 3 Zrotation Yrotation Xrotation
					JOINT rshoulder
					{
						OFFSET -0.113228 0.046853 -0.008472
						CHANNELS 3 Zrotation Yrotation Xrotation
						JOINT relbow
						{
							OFFSET -0.260127 -0.014369 -0.031269
							CHANNELS 3 Zrotation Yrotation Xrotation
							JOINT rwrist
							{
								OFFSET -0.269108 0.006794 -0.006027
								CHANNELS 3 Zrotation Yrotation Xrotation
								End Site
								{
									OFFSET 0.000000 0.000000 0.000000
								}
							}
						}
					}
				}
			}
		}
	}
}
MOTION
Frames: 7
Frame Time: 0.033333
0.079235 -0.363863 0.969446 12.732847 0.320252 95.469262 1.962791 -9.745349 -37.669787 -11.277962 -5.297650 38.661324 2.615880 8.142735 -13.349856 0.000000 -0.000000 0.000000 1.569980 4.398989 -26.985738 4.170797 5.496757 38.256520 -2.162539 -8.803053 -17.290084 0.000000 -0.000000 0.000000 3.286468 1.659073 33.494327 2.161585 -3.996507 8.984652 3.555551 1.401700 -2.905246 -6.449551 19.286433 -0.846300 -3.170846 20.528986 -11.440244 -21.519132 -12.206127 -3.598137 -54.413073 -17.136699 17.300297 27.036778 -55.617480 -1.631549 13.081336 -11.666487 7.325965 19.316857 9.991103 1.998423 46.902613 5.211310 8.728090 -11.876076 32.615974 3.730107 -10.934628 8.287218 3.343665 
0.076460 -0.354001 0.955811 14.060601 1.490824 94.506996 2.135538 -7.030068 -39.284508 -11.434754 -3.233273 47.233956 3.372851 10.490738 -17.351980 0.000000 -0.000000 0.000000 2.756283 4.481051 -28.076303 4.258643 4.195766 41.246906 -3.377110 -9.763946 -18.170638 0.000000 -0.000000 0.000000 4.676250 0.298005 33.197631 3.012252 -3.926248 9.494310 3.538504 1.117064 -3.303130 -6.243583 22.445822 -1.067795 -4.126056 21.451686 -10.629954 -20.427837 -15.282727 -3.393558 -52.262324 -23.422273 16.111935 32.513589 -60.891513 -5.472064 10.624922 -11.705102 10.744925 18.487947 9.854137 2.503594 48.697062 1.367308 7.662681 -10.356004 28.266840 8.347736 -5.772441 6.291102 5.320850 
0.073901 -0.345783 0.952658 14.428590 2.598318 94.136386 2.507938 -3.729861 -38.800773 -10.659419 -1.239680 53.680644 3.309471 12.066686 -19.660085 0.000000 -0.000000 0.000000 3.465660 5.667329 -28.241755 4.223132 2.863887 41.132140 -3.921229 -10.428775 -17.448522 0.000000 -0.000000 0.000000 4.420671 -0.941350 33.455516 4.236760 -4.283986 9.544348 4.405241 0.985503 -4.130780 -6.645231 26.509329 -0.079924 -6.035897 22.336868 -11.533515 -19.099689 -17.050846 -3.495719 -49.690368 -28.242881 14.258714 41.805976 -64.832237 -14.750114 9.966632 -11.899662 11.814867 18.207813 9.795276 2.936109 49.889887 -1.906341 7.774905 -9.890048 25.070706 11.451153 -3.704495 4.980742 6.447957 
0.074206 -0.338176 0.957879 14.306168 2.422578 94.480986 2.233728 -2.175060 -36.582772 -10.125784 0.192832 57.400981 3.235838 11.978501 -19.891127 0.000000 -0.000000 0.000000 2.797656 5.701762 -28.331820 4.071586 2.544763 39.386129 -4.058638 -9.947501 -15.543962 0.000000 -0.000000 0.000000 3.127783 -1.335225 32.747652 5.246524 -5.382647 10.318238 5.437973 0.396492 -4.815130 -7.412478 30.065642 0.868967 -7.650177 23.413443 -13.163516 -17.737524 -18.527214 -3.876272 -45.251573 -32.183283 11.596868 52.559193 -66.610820 -26.656386 11.283428 -12.731991 12.904276 18.670774 9.218423 3.040919 50.378461 -4.648084 7.707609 -9.760954 24.073251 11.903240 -3.254891 4.502725 7.389130 
0.076614 -0.329836 0.967948 14.020965 2.183868 95.773518 2.408223 -2.226758 -33.816256 -10.639041 1.192205 58.431097 3.027965 11.551812 -18.758440 0.000000 -0.000000 0.000000 2.138270 5.029716 -28.621366 4.004096 2.930791 36.040003 -3.925067 -9.162623 -12.317080 0.000000 -0.000000 0.000000 2.223373 -1.846379 31.522584 6.102538 -6.753043 10.172339 6.092031 -0.390297 -4.759885 -7.991928 32.450988 1.141921 -8.822871 24.325150 -13.655504 -15.830428 -19.226987 -4.164154 -40.136512 -35.124901 8.299657 60.295849 -66.644010 -35.876900 13.644080 -13.700662 13.041854 18.641614 7.836066 2.815335 50.832738 -7.018121 7.426287 -8.961678 25.365783 12.505640 -3.072900 4.388813 7.664597 
0.079624 -0.323512 0.980059 13.373322 2.294208 96.669559 3.065369 -2.943369 -29.403128 -11.657997 1.747652 56.874756 2.837241 13.031925 -14.764861 0.000000 -0.000000 0.000000 1.792582 5.338794 -27.867396 3.637663 2.973660 31.699491 -3.827362 -9.038178 -8.590652 0.000000 -0.000000 0.000000 1.622223 -2.514046 30.929891 6.719008 -7.820577 9.748907 6.633177 -1.016466 -4.643185 -8.257834 34.579209 2.195243 -9.887279 24.596051 -14.449943 -13.523773 -19.541877 -4.661789 -34.828107 -37.083609 4.653767 63.095951 -65.347291 -38.975665 15.934977 -14.370894 11.896535 17.970286 6.491314 2.315288 51.540112 -9.604942 7.051045 -7.431723 27.702484 13.551228 -2.242982 4.341034 6.471880 
0.083972 -0.316617 0.990241 12.249670 1.783983 97.738548 2.442410 -3.720006 -24.812714 -10.686753 2.331583 53.087448 3.311902 16.297962 -12.240570 0.000000 -0.000000 0.000000 1.175268 5.211031 -28.028722 3.175340 3.616030 28.619422 -3.618263 -9.140398 -5.397956 0.000000 -0.000000 0.000000 0.636567 -2.726992 29.923583 7.052331 -8.822504 9.787957 7.032785 -1.613126 -4.749769 -8.817015 35.907742 2.736269 -10.278679 24.982376 -15.012553 -11.364725 -19.705863 -5.205667 -29.468991 -38.024739 0.994903 63.004540 -63.684326 -39.408596 15.612588 -14.437229 11.439324 16.914535 5.265840 1.512804 52.506145 -11.925550 7.215360 -5.861240 29.849188 14.758819 -0.440400 4.048129 5.269614 
